<svg width="256" height="161" viewBox="0 0 256 161" fill="none" xmlns="http://www.w3.org/2000/svg">
<g clip-path="url(#clip0_5_195)">
<path d="M244.119 161H27.746C25.8218 161 23.9764 160.235 22.6158 158.874C21.2552 157.512 20.4908 155.665 20.4908 153.74C98.9261 144.618 175.887 144.618 251.374 153.74C251.374 155.665 250.61 157.512 249.249 158.874C247.889 160.235 246.043 161 244.119 161Z" fill="#CCCCCC"/>
<path d="M251.374 154.167L20.4908 153.74L47.2494 108.686L47.3774 108.472V9.17742C47.3773 7.9722 47.6145 6.77876 48.0754 5.66526C48.5362 4.55175 49.2118 3.54001 50.0634 2.68778C50.9151 1.83556 51.9262 1.15956 53.0389 0.698387C54.1517 0.237214 55.3443 -0.000100679 56.5488 3.20409e-08H214.036C215.24 -0.000100679 216.433 0.237214 217.546 0.698387C218.659 1.15956 219.67 1.83556 220.521 2.68778C221.373 3.54001 222.049 4.55175 222.509 5.66526C222.97 6.77876 223.207 7.9722 223.207 9.17742V109.155L251.374 154.167Z" fill="#E6E6E6"/>
<path d="M56.3397 6.40582C55.5476 6.40671 54.7883 6.72195 54.2282 7.28237C53.6682 7.8428 53.3532 8.60265 53.3523 9.39521V99.931C53.3532 100.724 53.6682 101.483 54.2283 102.044C54.7883 102.604 55.5476 102.919 56.3397 102.92H215.525C216.317 102.919 217.077 102.604 217.637 102.044C218.197 101.483 218.512 100.724 218.513 99.931V9.39521C218.512 8.60266 218.197 7.84283 217.637 7.28241C217.077 6.72199 216.317 6.40675 215.525 6.40582H56.3397Z" fill="white"/>
<path d="M57.3859 114.878C57.1411 114.878 56.9016 114.949 56.6955 115.081C56.4894 115.213 56.3253 115.401 56.2226 115.624L47.9775 133.56C47.8877 133.755 47.8485 133.97 47.8633 134.184C47.8782 134.399 47.9467 134.606 48.0625 134.787C48.1783 134.968 48.3378 135.116 48.5261 135.22C48.7145 135.323 48.9258 135.377 49.1405 135.377H222.532C222.75 135.377 222.964 135.321 223.155 135.214C223.346 135.108 223.506 134.955 223.621 134.769C223.735 134.583 223.801 134.371 223.81 134.153C223.82 133.935 223.774 133.718 223.676 133.522L214.714 115.586C214.609 115.373 214.445 115.194 214.243 115.068C214.041 114.943 213.807 114.877 213.569 114.878L57.3859 114.878Z" fill="#CCCCCC"/>
<path d="M135.292 4.91113C136.353 4.91113 137.213 4.05073 137.213 2.98938C137.213 1.92802 136.353 1.06763 135.292 1.06763C134.232 1.06763 133.372 1.92802 133.372 2.98938C133.372 4.05073 134.232 4.91113 135.292 4.91113Z" fill="white"/>
<path d="M118.249 138.793C117.968 138.793 117.694 138.886 117.471 139.058C117.248 139.229 117.087 139.469 117.013 139.741L114.945 147.428C114.894 147.618 114.887 147.817 114.925 148.01C114.963 148.203 115.045 148.384 115.165 148.541C115.285 148.697 115.438 148.823 115.615 148.91C115.791 148.997 115.985 149.042 116.181 149.042H155.514C155.718 149.042 155.919 148.994 156.101 148.9C156.282 148.806 156.439 148.671 156.557 148.504C156.675 148.338 156.752 148.146 156.781 147.943C156.81 147.741 156.79 147.535 156.723 147.342L154.065 139.655C153.977 139.403 153.814 139.185 153.597 139.031C153.38 138.876 153.121 138.793 152.855 138.793H118.249Z" fill="#CCCCCC"/>
<path d="M223.207 106.977V108.686H47.2495L47.3817 108.472V106.977H223.207Z" fill="#CCCCCC"/>
<path d="M201.489 110.891C201.42 110.891 201.354 110.913 201.299 110.955C201.245 110.997 201.206 111.055 201.188 111.121L200.684 112.993C200.672 113.04 200.67 113.088 200.679 113.135C200.689 113.182 200.709 113.226 200.738 113.264C200.767 113.302 200.804 113.333 200.847 113.354C200.89 113.375 200.937 113.386 200.985 113.386H210.563C210.613 113.386 210.662 113.374 210.706 113.352C210.75 113.329 210.788 113.296 210.817 113.255C210.846 113.215 210.865 113.168 210.872 113.119C210.879 113.07 210.874 113.019 210.858 112.972L210.21 111.1C210.189 111.039 210.149 110.986 210.096 110.948C210.044 110.911 209.98 110.891 209.916 110.891H201.489Z" fill="#CCCCCC"/>
<path d="M187.504 110.891C187.435 110.891 187.368 110.913 187.314 110.955C187.26 110.997 187.22 111.055 187.202 111.121L186.699 112.993C186.686 113.04 186.685 113.088 186.694 113.135C186.703 113.182 186.723 113.226 186.752 113.264C186.782 113.302 186.819 113.333 186.862 113.354C186.905 113.375 186.952 113.386 187 113.386H196.578C196.628 113.386 196.677 113.374 196.721 113.352C196.765 113.329 196.803 113.296 196.832 113.255C196.861 113.215 196.879 113.168 196.887 113.119C196.894 113.07 196.889 113.019 196.873 112.972L196.225 111.1C196.204 111.039 196.164 110.986 196.111 110.948C196.058 110.911 195.995 110.891 195.93 110.891H187.504Z" fill="#CCCCCC"/>
<path d="M146.985 122.785H147.736L146.235 22.3771H145.484L145.514 24.3803H128.689L128.719 22.3771H127.968L126.467 122.785H127.217L127.315 116.274H146.888L146.985 122.785ZM145.903 50.4211H128.299L128.483 38.1519H145.72L145.903 50.4211ZM145.915 51.1723L146.098 63.4416H128.105L128.288 51.1723H145.915ZM146.109 64.1927L146.293 76.462H127.91L128.094 64.1927H146.109ZM146.304 77.2132L146.487 89.4824H127.715L127.899 77.2132H146.304ZM146.499 90.2336L146.682 102.503H127.521L127.704 90.2336H146.499ZM145.525 25.1315L145.709 37.4007H128.494L128.678 25.1315H145.525ZM127.326 115.523L127.509 103.254H146.693L146.877 115.523H127.326Z" fill="#3F3D56"/>
<path d="M133.383 56.9607C140.143 56.9607 145.623 51.4767 145.623 44.7119C145.623 37.9471 140.143 32.4631 133.383 32.4631C126.622 32.4631 121.142 37.9471 121.142 44.7119C121.142 51.4767 126.622 56.9607 133.383 56.9607Z" fill="#2F2E41"/>
<path d="M140.583 53.1769L136.923 53.8398L138.11 60.4002L141.77 59.7374L140.583 53.1769Z" fill="#2F2E41"/>
<path d="M133.264 54.5026L129.605 55.1655L130.792 61.7259L134.451 61.0631L133.264 54.5026Z" fill="#2F2E41"/>
<path d="M132.734 63.1065C134.04 61.9997 134.763 60.7052 134.348 60.2151C133.933 59.725 132.538 60.2249 131.232 61.3318C129.926 62.4386 129.204 63.7331 129.619 64.2232C130.033 64.7133 131.428 64.2134 132.734 63.1065Z" fill="#2F2E41"/>
<path d="M139.9 61.8084C141.206 60.7016 141.929 59.4071 141.514 58.917C141.099 58.4269 139.704 58.9268 138.398 60.0336C137.092 61.1405 136.37 62.435 136.785 62.9251C137.199 63.4152 138.594 62.9153 139.9 61.8084Z" fill="#2F2E41"/>
<path d="M132.526 45.9021C134.836 45.9021 136.709 44.0278 136.709 41.7158C136.709 39.4038 134.836 37.5295 132.526 37.5295C130.215 37.5295 128.342 39.4038 128.342 41.7158C128.342 44.0278 130.215 45.9021 132.526 45.9021Z" fill="white"/>
<path d="M130.806 41.6106C131.576 41.6106 132.201 40.9859 132.201 40.2152C132.201 39.4445 131.576 38.8198 130.806 38.8198C130.036 38.8198 129.412 39.4445 129.412 40.2152C129.412 40.9859 130.036 41.6106 130.806 41.6106Z" fill="#3F3D56"/>
<path d="M143.039 31.3865C143.223 26.8518 139.317 23.0108 134.315 22.8075C129.313 22.6042 125.109 26.1155 124.925 30.6502C124.741 35.1849 128.218 36.2152 133.22 36.4185C138.222 36.6219 142.855 35.9212 143.039 31.3865Z" fill="#1A6BE3"/>
<path d="M128.046 43.8487C128.283 42.8137 125.804 41.362 122.509 40.6063C119.215 39.8506 116.352 40.077 116.114 41.112C115.877 42.147 118.356 43.5987 121.651 44.3544C124.946 45.1101 127.809 44.8837 128.046 43.8487Z" fill="#2F2E41"/>
<path d="M152.074 47.8472C152.311 46.8122 149.832 45.3606 146.537 44.6049C143.243 43.8492 140.379 44.0756 140.142 45.1106C139.905 46.1456 142.384 47.5972 145.679 48.3529C148.973 49.1087 151.837 48.8822 152.074 47.8472Z" fill="#2F2E41"/>
<path d="M136.745 49.539C136.811 49.8997 136.805 50.2699 136.728 50.6284C136.651 50.9869 136.504 51.3267 136.295 51.6283C136.087 51.93 135.821 52.1875 135.513 52.3863C135.205 52.5851 134.861 52.7213 134.501 52.7869C134.14 52.8526 133.77 52.8466 133.412 52.7691C133.054 52.6916 132.714 52.5443 132.413 52.3355C132.112 52.1267 131.855 51.8606 131.656 51.5523C131.458 51.244 131.322 50.8995 131.257 50.5387L131.256 50.5333C130.981 49.0166 132.153 48.4799 133.669 48.2053C135.185 47.9308 136.47 48.0223 136.745 49.539Z" fill="white"/>
<path d="M91.924 86.3135C93.1611 83.0747 93.3403 80.1341 92.3242 79.7454C91.3081 79.3568 89.4815 81.6674 88.2444 84.9062C87.0073 88.145 86.8281 91.0857 87.8442 91.4743C88.8603 91.8629 90.6868 89.5524 91.924 86.3135Z" fill="#2F2E41"/>
<path d="M90.8721 97.1031C91.9821 90.2579 87.3366 83.8083 80.496 82.6975C73.6554 81.5866 67.21 86.2353 66.0999 93.0804C64.9899 99.9256 69.6354 106.375 76.476 107.486C83.3166 108.597 89.762 103.948 90.8721 97.1031Z" fill="#2F2E41"/>
<path d="M76.58 104.946H72.7679V111.781H76.58V104.946Z" fill="#2F2E41"/>
<path d="M84.2041 104.946H80.392V111.781H84.2041V104.946Z" fill="#2F2E41"/>
<path d="M75.9446 113.052C77.6991 113.052 79.1213 112.519 79.1213 111.86C79.1213 111.202 77.6991 110.668 75.9446 110.668C74.1902 110.668 72.7679 111.202 72.7679 111.86C72.7679 112.519 74.1902 113.052 75.9446 113.052Z" fill="#2F2E41"/>
<path d="M83.5688 112.893C85.3232 112.893 86.7455 112.36 86.7455 111.701C86.7455 111.043 85.3232 110.509 83.5688 110.509C81.8143 110.509 80.392 111.043 80.392 111.701C80.392 112.36 81.8143 112.893 83.5688 112.893Z" fill="#2F2E41"/>
<path d="M66.314 83.4146C65.3008 78.8741 68.5396 74.286 73.548 73.1669C78.5564 72.0478 83.438 74.8215 84.4512 79.3621C85.4643 83.9027 82.1451 85.5773 77.1366 86.6964C72.1282 87.8155 67.3272 87.9552 66.314 83.4146Z" fill="#1A6BE3"/>
<path d="M70.0215 91.956C70.4876 90.9725 68.3275 88.9707 65.1967 87.4848C62.066 85.9989 59.1501 85.5917 58.6839 86.5752C58.2178 87.5587 60.3779 89.5605 63.5087 91.0464C66.6394 92.5322 69.5553 92.9395 70.0215 91.956Z" fill="#2F2E41"/>
<path d="M24.1539 120.362C31.084 120.362 36.702 114.74 36.702 107.806C36.702 100.871 31.084 95.2493 24.1539 95.2493C17.2238 95.2493 11.6058 100.871 11.6058 107.806C11.6058 114.74 17.2238 120.362 24.1539 120.362Z" fill="#2F2E41"/>
<path d="M22.2479 117.66H18.4358V124.495H22.2479V117.66Z" fill="#2F2E41"/>
<path d="M29.872 117.66H26.0599V124.495H29.872V117.66Z" fill="#2F2E41"/>
<path d="M21.6125 125.766C23.367 125.766 24.7893 125.232 24.7893 124.574C24.7893 123.916 23.367 123.382 21.6125 123.382C19.8581 123.382 18.4358 123.916 18.4358 124.574C18.4358 125.232 19.8581 125.766 21.6125 125.766Z" fill="#2F2E41"/>
<path d="M29.2367 125.607C30.9911 125.607 32.4134 125.073 32.4134 124.415C32.4134 123.757 30.9911 123.223 29.2367 123.223C27.4822 123.223 26.0599 123.757 26.0599 124.415C26.0599 125.073 27.4822 125.607 29.2367 125.607Z" fill="#2F2E41"/>
<path d="M24.4716 108.918C26.8401 108.918 28.7602 106.997 28.7602 104.627C28.7602 102.257 26.8401 100.335 24.4716 100.335C22.1031 100.335 20.183 102.257 20.183 104.627C20.183 106.997 22.1031 108.918 24.4716 108.918Z" fill="white"/>
<path d="M24.4716 106.057C25.2611 106.057 25.9011 105.417 25.9011 104.627C25.9011 103.837 25.2611 103.196 24.4716 103.196C23.6821 103.196 23.0421 103.837 23.0421 104.627C23.0421 105.417 23.6821 106.057 24.4716 106.057Z" fill="#3F3D56"/>
<path d="M11.9819 96.1286C10.9687 91.588 14.2075 86.9999 19.2159 85.8808C24.2244 84.7617 29.1059 87.5354 30.1191 92.076C31.1323 96.6166 27.813 98.2913 22.8045 99.4103C17.7961 100.529 12.9951 100.669 11.9819 96.1286Z" fill="#E6E6E6"/>
<path d="M33.3033 62.9476C34.5404 59.7088 34.7196 56.7681 33.7035 56.3795C32.6874 55.9909 30.8608 58.3014 29.6237 61.5403C28.3866 64.7791 28.2074 67.7198 29.2235 68.1084C30.2396 68.497 32.0662 66.1865 33.3033 62.9476Z" fill="#2F2E41"/>
<path d="M32.2514 73.7372C33.3614 66.892 28.7159 60.4424 21.8753 59.3316C15.0347 58.2207 8.58936 62.8694 7.47928 69.7145C6.3692 76.5597 11.0147 83.0093 17.8553 84.1201C24.696 85.231 31.1413 80.5824 32.2514 73.7372Z" fill="#2F2E41"/>
<path d="M17.9593 81.5803H14.1472V88.4147H17.9593V81.5803Z" fill="#2F2E41"/>
<path d="M25.5834 81.5803H21.7714V88.4147H25.5834V81.5803Z" fill="#2F2E41"/>
<path d="M17.3239 89.6863C19.0784 89.6863 20.5007 89.1526 20.5007 88.4942C20.5007 87.8358 19.0784 87.3021 17.3239 87.3021C15.5695 87.3021 14.1472 87.8358 14.1472 88.4942C14.1472 89.1526 15.5695 89.6863 17.3239 89.6863Z" fill="#2F2E41"/>
<path d="M24.9481 89.5273C26.7026 89.5273 28.1248 88.9936 28.1248 88.3353C28.1248 87.6769 26.7026 87.1432 24.9481 87.1432C23.1936 87.1432 21.7714 87.6769 21.7714 88.3353C21.7714 88.9936 23.1936 89.5273 24.9481 89.5273Z" fill="#2F2E41"/>
<path d="M20.183 72.8384C22.5515 72.8384 24.4716 70.9171 24.4716 68.547C24.4716 66.1769 22.5515 64.2556 20.183 64.2556C17.8145 64.2556 15.8944 66.1769 15.8944 68.547C15.8944 70.9171 17.8145 72.8384 20.183 72.8384Z" fill="white"/>
<path d="M20.183 69.9775C20.9725 69.9775 21.6125 69.337 21.6125 68.547C21.6125 67.757 20.9725 67.1165 20.183 67.1165C19.3935 67.1165 18.7535 67.757 18.7535 68.547C18.7535 69.337 19.3935 69.9775 20.183 69.9775Z" fill="#3F3D56"/>
<path d="M7.69329 60.0487C6.68009 55.5081 9.91889 50.92 14.9273 49.8009C19.9358 48.6818 24.8173 51.4555 25.8305 55.9961C26.8437 60.5367 23.5244 62.2113 18.516 63.3304C13.5075 64.4495 8.70649 64.5893 7.69329 60.0487Z" fill="#1A6BE3"/>
<path d="M11.4008 68.59C11.867 67.6065 9.70685 65.6047 6.57608 64.1188C3.44531 62.633 0.529421 62.2257 0.0632735 63.2092C-0.402874 64.1927 1.75724 66.1945 4.88801 67.6804C8.01878 69.1663 10.9347 69.5735 11.4008 68.59Z" fill="#2F2E41"/>
<path d="M13.7018 76.2557C13.7018 77.4846 16.864 79.9114 20.3729 79.9114C23.8818 79.9114 27.1718 76.4515 27.1718 75.2226C27.1718 73.9936 23.8818 75.461 20.3729 75.461C16.864 75.461 13.7018 75.0267 13.7018 76.2557Z" fill="white"/>
<path d="M32.2021 23.7816C31.9704 23.7819 31.7482 23.8741 31.5843 24.0381C31.4205 24.2021 31.3283 24.4244 31.328 24.6563V60.8089C31.3283 61.0408 31.4205 61.2631 31.5843 61.4271C31.7482 61.5911 31.9704 61.6833 32.2021 61.6835H115.822C116.054 61.6833 116.276 61.5911 116.44 61.4271C116.604 61.2631 116.696 61.0408 116.696 60.8089V24.6563C116.696 24.4244 116.604 24.2021 116.44 24.0381C116.276 23.8741 116.054 23.7819 115.822 23.7816H32.2021Z" fill="#1A6BE3"/>
<path d="M54.7808 51.2229C59.4668 51.2229 63.2655 47.4217 63.2655 42.7326C63.2655 38.0435 59.4668 34.2422 54.7808 34.2422C50.0949 34.2422 46.2961 38.0435 46.2961 42.7326C46.2961 47.4217 50.0949 51.2229 54.7808 51.2229Z" fill="white"/>
<path d="M73.9306 41.6029C73.6703 41.6072 73.4221 41.7137 73.2396 41.8994C73.057 42.0851 72.9547 42.3351 72.9547 42.5956C72.9547 42.8561 73.057 43.1062 73.2396 43.2919C73.4221 43.4775 73.6703 43.584 73.9306 43.5883H100.72C100.85 43.5905 100.98 43.5671 101.101 43.5192C101.222 43.4713 101.333 43.4 101.427 43.3094C101.52 43.2187 101.595 43.1104 101.647 42.9908C101.699 42.8711 101.727 42.7424 101.729 42.6119C101.731 42.4815 101.707 42.3519 101.66 42.2306C101.612 42.1093 101.54 41.9986 101.45 41.9049C101.359 41.8112 101.251 41.7363 101.131 41.6845C101.011 41.6327 100.883 41.605 100.752 41.6029C100.742 41.6027 100.731 41.6027 100.72 41.6029H73.9306Z" fill="white"/>
<path d="M73.9306 35.8514C73.6703 35.8557 73.4221 35.9622 73.2396 36.1479C73.057 36.3336 72.9547 36.5836 72.9547 36.8441C72.9547 37.1046 73.057 37.3546 73.2396 37.5403C73.4221 37.726 73.6703 37.8325 73.9306 37.8368H87.3085C87.4388 37.839 87.5683 37.8155 87.6896 37.7677C87.8109 37.7198 87.9215 37.6485 88.0152 37.5578C88.109 37.4672 88.1839 37.3589 88.2358 37.2392C88.2877 37.1196 88.3155 36.9908 88.3176 36.8604C88.3198 36.73 88.2962 36.6004 88.2483 36.4791C88.2003 36.3578 88.129 36.2471 88.0383 36.1534C87.9476 36.0597 87.8393 35.9848 87.7197 35.933C87.6001 35.8811 87.4714 35.8534 87.3411 35.8514C87.3302 35.8512 87.3193 35.8512 87.3085 35.8514H73.9306Z" fill="white"/>
<path d="M73.9306 47.6284C73.6703 47.6327 73.4221 47.7391 73.2396 47.9248C73.057 48.1105 72.9547 48.3606 72.9547 48.6211C72.9547 48.8816 73.057 49.1316 73.2396 49.3173C73.4221 49.503 73.6703 49.6095 73.9306 49.6138H100.72C100.85 49.616 100.98 49.5925 101.101 49.5447C101.222 49.4968 101.333 49.4255 101.427 49.3348C101.52 49.2442 101.595 49.1359 101.647 49.0162C101.699 48.8966 101.727 48.7678 101.729 48.6374C101.731 48.507 101.707 48.3774 101.66 48.2561C101.612 48.1348 101.54 48.0241 101.45 47.9304C101.359 47.8367 101.251 47.7618 101.131 47.71C101.011 47.6581 100.883 47.6304 100.752 47.6284C100.742 47.6282 100.731 47.6282 100.72 47.6284H73.9306Z" fill="white"/>
<path d="M204.036 114.5C205.052 114.112 204.873 111.171 203.636 107.932C202.399 104.693 200.572 102.383 199.556 102.771C198.54 103.16 198.719 106.101 199.956 109.339C201.194 112.578 203.02 114.889 204.036 114.5Z" fill="#2F2E41"/>
<path d="M212.782 133.136C219.623 132.025 224.268 125.575 223.158 118.73C222.048 111.885 215.603 107.236 208.762 108.347C201.922 109.458 197.276 115.908 198.386 122.753C199.496 129.598 205.942 134.247 212.782 133.136Z" fill="#2F2E41"/>
<path d="M216.49 130.596H212.678L213.424 138.781L216.497 137.946L216.49 130.596Z" fill="#2F2E41"/>
<path d="M208.18 130.617H204.368L205.113 138.802L208.047 137.946L208.18 130.617Z" fill="#2F2E41"/>
<path d="M205.005 139.187C206.755 139.059 208.134 138.423 208.087 137.766C208.039 137.109 206.581 136.681 204.831 136.809C203.082 136.937 201.702 137.573 201.75 138.23C201.798 138.886 203.255 139.315 205.005 139.187Z" fill="#2F2E41"/>
<path d="M210.454 121.854C212.823 121.854 214.743 119.933 214.743 117.563C214.743 115.193 212.823 113.271 210.454 113.271C208.086 113.271 206.166 115.193 206.166 117.563C206.166 119.933 208.086 121.854 210.454 121.854Z" fill="white"/>
<path d="M210.454 118.993C211.244 118.993 211.884 118.353 211.884 117.563C211.884 116.773 211.244 116.132 210.454 116.132C209.665 116.132 209.025 116.773 209.025 117.563C209.025 118.353 209.665 118.993 210.454 118.993Z" fill="#3F3D56"/>
<path d="M225.616 113.171C227.674 110.382 228.634 107.597 227.759 106.95C226.884 106.303 224.506 108.04 222.447 110.829C220.388 113.618 219.429 116.403 220.304 117.05C221.179 117.697 223.557 115.96 225.616 113.171Z" fill="#2F2E41"/>
<path d="M204.65 127.216C204.65 126.203 207.256 124.203 210.148 124.203C213.04 124.203 215.752 127.055 215.752 128.067C215.752 129.08 213.04 127.871 210.148 127.871C207.256 127.871 204.65 128.229 204.65 127.216Z" fill="white"/>
<path d="M245.959 110.365L177.272 100.837C176.737 100.762 176.253 100.477 175.926 100.046C175.6 99.6144 175.458 99.071 175.532 98.535L183.254 42.7982C183.328 42.2624 183.613 41.7781 184.044 41.4517C184.475 41.1252 185.018 40.9833 185.554 41.0569L254.24 50.5852C254.776 50.6601 255.26 50.9445 255.586 51.3761C255.912 51.8076 256.054 52.351 255.981 52.887L248.259 108.624C248.184 109.16 247.9 109.644 247.469 109.97C247.037 110.297 246.494 110.439 245.959 110.365Z" fill="#1A6BE3"/>
<path d="M221.352 92.9704L186.286 88.106C186.242 88.1004 186.198 88.0909 186.156 88.0774L206.723 61.6317C206.849 61.4667 207.017 61.3381 207.209 61.2591C207.401 61.1802 207.61 61.1536 207.816 61.1821C208.021 61.2106 208.216 61.2932 208.379 61.4214C208.542 61.5497 208.668 61.719 208.745 61.9121L217.203 82.7472L217.608 83.7442L221.352 92.9704Z" fill="white"/>
<path opacity="0.2" d="M221.352 92.9702L209.38 91.3095L216.44 83.5822L216.949 83.0256L217.203 82.7472L217.608 83.7443L221.352 92.9702Z" fill="black"/>
<path d="M240.877 95.6789L210.547 91.4716L217.608 83.7442L218.116 83.1875L227.317 73.1172C227.476 72.9659 227.665 72.8498 227.872 72.7764C228.079 72.7029 228.299 72.6738 228.517 72.6909C228.736 72.708 228.949 72.771 229.141 72.8757C229.334 72.9804 229.503 73.1245 229.637 73.2987C229.67 73.3477 229.701 73.3988 229.728 73.4516L240.877 95.6789Z" fill="white"/>
<path d="M221.779 70.6094C224.675 70.6094 227.023 68.2598 227.023 65.3614C227.023 62.4631 224.675 60.1135 221.779 60.1135C218.882 60.1135 216.534 62.4631 216.534 65.3614C216.534 68.2598 218.882 70.6094 221.779 70.6094Z" fill="white"/>
<path d="M193.075 46.2223L186.725 45.3416L185.845 51.695L192.194 52.5758L193.075 46.2223Z" fill="#3F3D56"/>
<path d="M222.944 109.064C223.957 104.524 220.719 99.9358 215.71 98.8167C210.702 97.6976 205.82 100.471 204.807 105.012C203.794 109.552 207.113 111.227 212.122 112.346C217.13 113.465 221.931 113.605 222.944 109.064Z" fill="#F2F2F2"/>
<path d="M213.365 139.166C215.115 139.038 216.494 138.402 216.446 137.746C216.398 137.089 214.941 136.661 213.191 136.789C211.441 136.917 210.062 137.553 210.11 138.209C210.158 138.866 211.615 139.294 213.365 139.166Z" fill="#2F2E41"/>
</g>
<defs>
<clipPath id="clip0_5_195">
<rect width="256" height="161" fill="white"/>
</clipPath>
</defs>
</svg>
